<svg width="32" height="32" viewBox="0 0 32 32" fill="none" xmlns="http://www.w3.org/2000/svg">
<path d="M13.8509 4.29834C6.2135 4.29834 0 10.5119 0 18.1493C0 25.7866 6.2135 32.0002 13.8509 32.0002C21.4884 32.0002 27.7019 25.7867 27.7019 18.1493C27.7019 10.5118 21.4884 4.29834 13.8509 4.29834Z" fill="#FF8C78"/>
<path d="M13.8509 7.0752C7.74482 7.0752 2.77713 12.0429 2.77713 18.149C2.77713 24.2551 7.74476 29.2228 13.8509 29.2228C19.9571 29.2228 24.9248 24.2552 24.9248 18.149C24.9248 12.0428 19.9571 7.0752 13.8509 7.0752Z" fill="#ECEDEF"/>
<path d="M13.8509 10.4077C9.58243 10.4077 6.10968 13.8805 6.10968 18.149C6.10968 22.4175 9.58243 25.8902 13.8509 25.8902C18.1194 25.8902 21.5922 22.4175 21.5922 18.149C21.5922 13.8804 18.1194 10.4077 13.8509 10.4077Z" fill="#FF8C78"/>
<path d="M13.8509 13.1851C11.1137 13.1851 8.88681 15.412 8.88681 18.1492C8.88681 20.8864 11.1137 23.1133 13.8509 23.1133C16.5881 23.1133 18.8151 20.8864 18.8151 18.1492C18.8151 15.412 16.5881 13.1851 13.8509 13.1851Z" fill="#ECEDEF"/>
<path d="M13.8509 15.9619C12.6451 15.9619 11.6639 16.943 11.6639 18.1489C11.6639 19.3548 12.645 20.3359 13.8509 20.3359C15.0569 20.3359 16.0379 19.3549 16.0379 18.1489C16.0379 16.943 15.0568 15.9619 13.8509 15.9619Z" fill="#FF8C78"/>
<path d="M22.367 25.2197C22.1449 25.4869 21.9105 25.7435 21.6647 25.9887L23.7159 27.8616C23.9595 27.6142 24.1938 27.3577 24.4184 27.0927L22.367 25.2197Z" fill="#DF7A6E"/>
<path d="M19.2009 23.7392L21.6646 25.9888C21.9106 25.7437 22.1449 25.487 22.367 25.2198L19.9032 22.9702C19.6863 23.242 19.4517 23.499 19.2009 23.7392Z" fill="#D9DCDF"/>
<path d="M19.9032 22.9702L17.8459 21.0918C17.6389 21.372 17.4031 21.6294 17.1431 21.8604L19.2008 23.7392C19.4518 23.499 19.6863 23.242 19.9032 22.9702Z" fill="#DF7A6E"/>
<path d="M15.0678 19.9652L17.1431 21.86C17.4031 21.629 17.6389 21.3716 17.8459 21.0914L15.7702 19.1963C15.6009 19.5054 15.3591 19.7694 15.0678 19.9652Z" fill="#D9DCDF"/>
<path d="M15.7703 19.1965L14.202 17.7646L13.4998 18.5338L15.0678 19.9655C15.3591 19.7696 15.6009 19.5056 15.7703 19.1965Z" fill="#DF7A6E"/>
<path d="M26.8532 4.41016L13.4827 17.7807C13.2931 17.9703 13.2806 18.2835 13.4551 18.4873C13.6497 18.7147 14.0074 18.7289 14.2191 18.5172L27.5897 5.14659L26.8532 4.41016Z" fill="#424F5E"/>
<path d="M31.4782 3.97754H28.0224L26.4077 4.68966L24.8804 7.11954H29.04C29.3943 7.11954 29.7341 6.97879 29.9846 6.72823L31.8464 4.86641C32.1745 4.53841 31.9422 3.97754 31.4782 3.97754Z" fill="#FFC44F"/>
<path d="M28.0225 0.521747V3.97762L24.8805 7.11962V2.95993C24.8805 2.60562 25.0212 2.26587 25.2718 2.01531L27.1336 0.153497C27.4616 -0.174441 28.0225 0.0578718 28.0225 0.521747Z" fill="#C4DF64"/>
</svg>
